# xmcd
#
# Track frame offsets: 
#        150
#        28454
#        57364
#        75474
#        105930
#        123183
#        145935
#        170275
#        197802
#        213320
#        243296
#        259715
#
# Disc length: 4151 seconds
#
# Revision: 0
# Processed by: cddbd v1.5.2PL0 Copyright (c) Steve Scherf et al.
# Submitted via: ExactAudioCopyFreeDBPlugin 1.0
#
DISCID=9f10350c
DTITLE=Jimmy LaFave - Trail Three
DYEAR=2013
DGENRE=Country Rock
TTITLE0=Meet Me In The Morning
TTITLE1=Secret Garden
TTITLE2=Blues Power
TTITLE3=Love Minus Zero No Limits
TTITLE4=I'm Thinking Of You
TTITLE5=Sweetheart Like You
TTITLE6=Blues In C Minor - Deep South 61 Delta Highway Blues
TTITLE7=Long Ago With Miles Between
TTITLE8=Dusty Old Fairgrounds
TTITLE9=Mr. Tambourine Man
TTITLE10=Rain Falling Down
TTITLE11=The Weight - Rainy Day Women #12 and 35
EXTD=
EXTT0=
EXTT1=
EXTT2=
EXTT3=
EXTT4=
EXTT5=
EXTT6=
EXTT7=
EXTT8=
EXTT9=
EXTT10=
EXTT11=
PLAYORDER=
